<?xml version="1.0" encoding="utf-8"?><!-- Uploaded to: SVG Repo, www.svgrepo.com, Generator: SVG Repo Mixer Tools -->
<svg width="800px" height="800px" viewBox="0 -0.5 25 25" fill="none" xmlns="http://www.w3.org/2000/svg">
<path fill-rule="evenodd" clip-rule="evenodd" d="M19.5 15.889C19.5 17.6072 18.1072 19 16.389 19H8.611C6.89284 19 5.5 17.6072 5.5 15.889V8.111C5.5 6.39284 6.89284 5 8.611 5H16.389C18.1072 5 19.5 6.39284 19.5 8.111V15.889Z" stroke="#000000" stroke-width="1.5" stroke-linecap="round" stroke-linejoin="round"/>
<path fill-rule="evenodd" clip-rule="evenodd" d="M12.252 10.393C12.6407 9.77979 12.5659 8.98137 12.07 8.45103C11.586 7.93338 10.7944 7.85188 10.215 8.26003C9.97101 8.43211 9.7829 8.67203 9.674 8.95003C9.56258 9.23247 9.53346 9.54071 9.59 9.83903C9.64471 10.1347 9.7836 10.4083 9.99 10.627C10.1922 10.8403 10.4545 10.9872 10.742 11.048C11.0273 11.1072 11.3239 11.0765 11.591 10.96C11.863 10.8413 12.0932 10.6438 12.252 10.393V10.393Z" stroke="#000000" stroke-width="1.5" stroke-linecap="round" stroke-linejoin="round"/>
<path fill-rule="evenodd" clip-rule="evenodd" d="M12.748 15.316C12.3593 14.7028 12.4341 13.9043 12.93 13.374C13.414 12.8564 14.2056 12.7748 14.785 13.183C15.029 13.3551 15.2171 13.595 15.326 13.873C15.4374 14.1554 15.4665 14.4637 15.41 14.762C15.3553 15.0577 15.2164 15.3313 15.01 15.55C14.8078 15.7633 14.5455 15.9101 14.258 15.971C13.9727 16.0302 13.6761 15.9995 13.409 15.883C13.137 15.7643 12.9068 15.5668 12.748 15.316Z" stroke="#000000" stroke-width="1.5" stroke-linecap="round" stroke-linejoin="round"/>
<path d="M12.5 8.78802C12.0858 8.78802 11.75 9.12381 11.75 9.53802C11.75 9.95224 12.0858 10.288 12.5 10.288V8.78802ZM16.5 10.288C16.9142 10.288 17.25 9.95224 17.25 9.53802C17.25 9.12381 16.9142 8.78802 16.5 8.78802V10.288ZM9.561 10.288C9.97521 10.288 10.311 9.95224 10.311 9.53802C10.311 9.12381 9.97521 8.78802 9.561 8.78802V10.288ZM8.5 8.78802C8.08579 8.78802 7.75 9.12381 7.75 9.53802C7.75 9.95224 8.08579 10.288 8.5 10.288V8.78802ZM12.5 15.212C12.9142 15.212 13.25 14.8762 13.25 14.462C13.25 14.0478 12.9142 13.712 12.5 13.712V15.212ZM8.5 13.712C8.08579 13.712 7.75 14.0478 7.75 14.462C7.75 14.8762 8.08579 15.212 8.5 15.212V13.712ZM15.439 13.712C15.0248 13.712 14.689 14.0478 14.689 14.462C14.689 14.8762 15.0248 15.212 15.439 15.212V13.712ZM16.5 15.212C16.9142 15.212 17.25 14.8762 17.25 14.462C17.25 14.0478 16.9142 13.712 16.5 13.712V15.212ZM12.5 10.288H16.5V8.78802H12.5V10.288ZM9.561 8.78802H8.5V10.288H9.561V8.78802ZM12.5 13.712H8.5V15.212H12.5V13.712ZM15.439 15.212H16.5V13.712H15.439V15.212Z" fill="#000000"/>
</svg>